<?xml version="1.0" encoding="utf-8"?>
<!-- Generator: Adobe Illustrator 22.0.1, SVG Export Plug-In . SVG Version: 6.00 Build 0)  -->
<svg version="1.1" id="svg2" xmlns:svg="http://www.w3.org/2000/svg"
	 xmlns="http://www.w3.org/2000/svg" xmlns:xlink="http://www.w3.org/1999/xlink" x="0px" y="0px" viewBox="0 0 1000 1000"
	 style="enable-background:new 0 0 1000 1000;" xml:space="preserve">
<style type="text/css">
	.st0{fill:#DC143C;}
	.st1{fill:#FFFFFF;}
	.st2{fill:#271400;}
</style>
<rect x="156.3" y="156.3" transform="matrix(0.7071 0.7071 -0.7071 0.7071 500 -207.1068)" class="st0" width="687.3" height="687.3"/>
<g>
	
		<rect id="rect4" x="169.5" y="169.5" transform="matrix(0.7071 -0.7071 0.7071 0.7071 -207.1068 500)" class="st1" width="661.1" height="661.1"/>
	<path id="rect3631" class="st0" d="M500,32.5l-46.7,46.7l-187,187L313,313l187-187l187,187l46.7-46.7l-187-187L500,32.5z M687,313
		L500,500l187,187l187-187L687,313z M687,687L500,874L313,687l-46.7,46.7l187,187l46.7,46.7l46.7-46.7l187-187L687,687z M313,687
		l187-187L313,313L126,500L313,687z"/>
</g>
<g>
	<path class="st2" d="M796,463c-9.6-1.2-187-16-187-16h-82c0,0,0-82,0-104c0-21.2-27-19-27-19s-27-2.2-27,19c0,22,0,104,0,104h-82
		c0,0-177.4,14.8-187,16c-17,2.1-16,25-16,25v30l285,15c0.2,4.4,7.3,114.9,12,163c-19,0-69,0-69,0s-24,2.6-24,16
		c0,5.5,0.1,15.8,0.1,22.1c0,5,7.4,7.4,7.4,7.4L489,741c0,0,3.3,32,11,32s11-32,11-32l89.5,0.5c0,0,7.4-2.4,7.4-7.4
		c0-6.4,0.1-16.6,0.1-22.1c0-13.4-24-16-24-16s-50,0-69,0c4.7-48.1,11.8-158.6,12-163l285-15v-30C812,488,813,465.1,796,463z"/>
</g>
<g>
	<g>
		<path d="M343.8,618.1l-6.3,21.2h-20.7l27-82.5H370l27.4,82.5h-21.5l-6.8-21.2H343.8z M366.2,604.1l-5.5-17.5
			c-1.6-4.9-3.1-11-4.5-15.9h-0.3c-1.3,4.9-2.6,11.1-4.1,15.9l-5.2,17.5H366.2z"/>
	</g>
	<g>
		<path d="M683.3,597.1c0,27.1-17.6,43.5-43.4,43.5c-26.2,0-41.6-18.5-41.6-42c0-24.7,16.9-43.2,43-43.2
			C668.4,555.4,683.3,574.4,683.3,597.1z M619.4,598.2c0,16.2,8.1,27.5,21.5,27.5c13.5,0,21.2-12,21.2-28c0-14.8-7.6-27.5-21.4-27.5
			C627.3,570.2,619.4,582.2,619.4,598.2z"/>
	</g>
</g>
</svg>
